<svg id="Layer_1" data-name="Layer 1" xmlns="http://www.w3.org/2000/svg" viewBox="0 0 511.81 451.27"><path d="M1524.1,299.23c3.93-9.63,8.15-19.15,12.25-28.71v-6a22.46,22.46,0,0,0-9.48-6.58c-14.45-5.86-28.81-11.94-43.21-17.94q-31.5-13.11-63-26.21c-8.87-3.69-12.53-2.12-16.25,6.89-1.72,4.14-3,8.55-5.23,12.36-7.06,12-6.72,23.48-1.45,36.32,6.51,15.88,11,32.57,16.59,49.44-1.83-.25-3.13-.33-4.38-.61a147.31,147.31,0,0,0-78.33,3.66c-77,24.78-121.13,101.85-103.11,180.74,9.66,42.29,33.82,74.59,70.86,97.19,1.32.8,2.64,2.45,4.48,1.37,8.82-5.23,16.93-11.33,23.72-19.41-1.63-.84-2.8-1.47-4-2-42.76-20.73-68.38-67.32-63-114.51a113.77,113.77,0,0,1,135.94-98.76c59.92,12,100.55,71.11,89,130.67-9.07,46.71-37.13,76.81-82.75,90.42a8.84,8.84,0,0,0-6,4.6,154.11,154.11,0,0,1-17.63,26c-.72.87-2.33,1.5-1.68,3.17,53.37.79,113.78-28.73,139.17-89.42,33.31-79.63,9.2-144.26-57.68-195.29,18.5-9.23,37.47-18.78,56.54-28.12A16.6,16.6,0,0,0,1524.1,299.23Zm-87.35,27.4c-6.37-19.32-12.66-38.35-19.3-58.49l74.62,31Zm76.54-49.95c-3.94,9.55-3.84,9.57-13.47,5.56Q1459.89,265.59,1420,249c-6.1-2.54-6.09-2.54-3.64-8.47q1-2.52,2.06-5.06c.38-.94.69-1.92,1.6-1.72,1.2.45,2,.73,2.75,1,29.53,12.29,59,24.63,88.61,36.8C1514.33,272.82,1514.38,274.05,1513.29,276.68Z" transform="translate(-1024.54 -211.94)"/><path d="M1398.32,478.88c-7.23-36.46-26-66.18-55-89.47-1.44-1.16-2.63-3-5.15-2a95.85,95.85,0,0,0-36.5,25.47c1.07.58,1.78,1,2.53,1.36,46.49,22.31,71.77,71,63.34,122-12.37,74.88-94.73,116.93-162.66,82.21-42.22-21.57-64-57.44-62.55-104.76,1.52-48.84,26.86-83,71.72-102.39,2.57-1.11,4.34-2.4,5.39-5.18a160.73,160.73,0,0,1,23.92-42.37c1.76-2.27,3.5-4.56,5.69-7.42-34.11,0-64.07,10.09-91.37,29.23-1.67-22.5-3.33-44.25-4.85-66a12.85,12.85,0,0,0-4.16-8.72c-6.78-6.66-13.43-13.44-20.16-20.13-6.42-6.37-10.37-6.33-16.85.15q-41.19,41.16-82.37,82.32a29.39,29.39,0,0,0-4.77,6.29v5a47.48,47.48,0,0,0,3.62,4.66c6.9,7,13.94,13.86,20.8,20.91a13.47,13.47,0,0,0,9.26,4.21q16.44,1.06,32.89,2.24c10.86.78,21.72,1.6,33.11,2.44-.85,1.44-1.3,2.29-1.84,3.09q-35.84,52.62-25,115.35c13.89,80.92,94,137.59,175.1,123.75C1359.3,646.3,1415.43,565.24,1398.32,478.88Zm-341.44-87.17c-3.21-3.42-6.28-6.65-9.21-10-.12-.14,1-1.55,1.72-2.23q34.21-34.25,68.41-68.48c1.72-1.72,2.68-2.06,4.66-.18,8,7.59,8.06,7.51.27,15.3q-31.21,31.22-62.45,62.43C1059.25,389.58,1058.15,390.54,1056.88,391.71Zm80.64,9.34c-19.22-1.49-38.44-2.88-56.87-4.24,18.22-18.22,36.67-36.67,55.1-55.08.86,12.18,1.82,25.4,2.74,38.62.42,6,.78,11.94,1.15,17.92C1139.73,399.77,1140.06,401.25,1137.52,401.05Z" transform="translate(-1024.54 -211.94)"/></svg>