<svg id="Layer_1" data-name="Layer 1" xmlns="http://www.w3.org/2000/svg" viewBox="0 0 510.63 299.11"><defs><style>.cls-1{fill:#abdcd9;}.cls-2{fill:#e3f3ed;}.cls-3{fill:#e3f4ed;}.cls-4{fill:#6bbfb9;}.cls-5{fill:#60c4be;}.cls-6{fill:#51b9b4;}.cls-7{fill:#fefefe;}.cls-8{fill:#e1f3ec;}.cls-9{fill:#67c0ba;}.cls-10{fill:#68c1ba;}.cls-11{fill:#72bfb9;}.cls-12{fill:#98cac3;}.cls-13{fill:#3d938c;}.cls-14{fill:#3a9791;}</style></defs><path class="cls-1" d="M871.19,368.49c11.44-.61,21.82-5.45,32.71-8.24,41.07-10.54,82.38-19.94,124.28-26.49a80.76,80.76,0,0,1,31.06,1.15c36.32,8.45,72.28,18.3,108.55,26.86,9.66,2.28,19.24,5,29.22,5.71,6.25.69,12.5,1,18.71-.31,2.2,1.54,1.41,4.07,2,6.13,1.09,13.75,5.57,26.66,9.93,39.59,3.5,10.4,7.12,20.75,9.5,31.52,2,8.82.88,17.17-2.13,25.47-5.46,15-11.92,29.64-18,44.39-4.27,10.31-8.4,20.66-11.7,31.32-.49,2-1.74,3.79-1.73,5.94-.19,1.71-1.52,2.69-2.5,3.89-1.55,5.42-3.2,10.82-4.62,16.27-.77,3-2.45,4.18-5.42,3.77-4.1-.56-8.22-1-12.28-1.73a7.11,7.11,0,0,0-6.39,1.58A224.47,224.47,0,0,1,1078,620.54c-34.39,7.46-67.87,4.42-100.73-8a302.51,302.51,0,0,1-78-43.62c-1.91-1.48-3.42-1.24-5.46-.71-15.72,4-14.53,3.63-21.9-11-4.27-8.48-7.84-17.26-11.24-26.09-.79-2.06-2.55-3-3.6-4.59.23-1.67-1.37-2.7-1.49-4.25a25,25,0,0,0-2.67-8.83c-6.39-18.69-11.44-37.61-10.17-57.64,1-15.33,3.77-30.39,7.14-45.32,3.15-14,6.32-27.92,9.32-41.91,1.36-2.93,3.56,0,5.23-.74C866.66,368.23,868.77,369.88,871.19,368.49Z" transform="translate(-780.26 -325.46)"/><path class="cls-2" d="M871.19,368.49c-2.34,1.64-4.65,1.12-7-.1-2.28-.58-2.73-2.72-3.68-4.38-6.86-12.12-15.94-21.89-29-27.41-3.78-1.6-7.61-3.31-11.93-2.28-2.56.26-4.92-.76-7.36-1.18-10.3-1.8-18.08,2.55-21.68,12.34s-3,20.22-1.51,30.14c3.52,23.81,11,46.57,20.23,68.81a256.06,256.06,0,0,0,24.37,46.27,117.05,117.05,0,0,0,20.54,23.63c1.79,2.4,3,4.94,1.95,8-2.23.67-3.34-1.07-4.62-2.25-13.48-12.38-24.32-26.82-33.34-42.71-17-30-26.84-62.56-34.5-95.92-3-13-3.79-25.88.5-38.78,1.08-3.22,3.25-6,3.92-9.34,3.8-5.3,9.54-7.42,15.49-7.77,24.24-1.43,43,8.57,56.35,28.63A89.8,89.8,0,0,1,866.37,366C867.46,368.26,869.12,368.54,871.19,368.49Z" transform="translate(-780.26 -325.46)"/><path class="cls-3" d="M1201.11,555.42c-.29-1.78,1.55-2.68,1.77-4.25,2.6-4.72,7.56-6.84,11.42-10.12,18.43-15.63,32.69-34.51,43.81-55.78a256.78,256.78,0,0,0,27-83.16c1.5-10.56.86-21.23-.79-31.79,0-.25-.56.56-1,.3a2.62,2.62,0,0,1-1.42-2.42c.3-6.46-2.29-12.08-5-17.69-2.37-6.25-7.48-9.05-13.48-10.72-17.38-2.94-28,7.67-38.19,19-2.82,3.13-4.77,7.21-9.13,8.74-6.39,1.19-12.78,1.57-19.16-.1,1.33,0,2.66-.05,4-.05,12.59,0,12.67,0,20.31-9.91a79.76,79.76,0,0,1,22.15-19.75c19.5-11.8,41,.3,45.52,22.4,3.25,15.69,1.81,31.21-.55,46.88a256.91,256.91,0,0,1-13.18,49.88c-11.68,31.91-28.22,60.83-53.48,84.07C1215.61,546.69,1208.89,551.9,1201.11,555.42Z" transform="translate(-780.26 -325.46)"/><path class="cls-4" d="M788.14,333.36c1,.54.8,1.24.35,2.05-7.08,12.73-8.08,26.39-4.9,40.18,5.22,22.67,11,45.24,19.52,67,12,30.39,27.86,58.2,53.07,79.81.67,1.31,3.47,2.17.88,4.16-17.73-12.73-29.87-30.12-40.19-48.88a316.56,316.56,0,0,1-35.24-99.58c-1.77-10.32-2-20.78.41-31.17A40.69,40.69,0,0,1,788.14,333.36Z" transform="translate(-780.26 -325.46)"/><path class="cls-5" d="M874,521.51c-6.53-15-10.56-30.47-11.11-47.08-.83-25.37,4.35-49.8,9.48-74.32.1-.49.47-.95.46-1.42-.3-10.77,5.86-14.21,15.64-16.43,29.08-6.6,58.09-13.59,87.34-19.35,21.74-4.28,43.51-8.77,65.82-9.8,5.52-.25,10.88.44,16.31.5,2.86,0,5.33-3.48,8.32-.67l-3.06,1.27c1.92,0,3,.23,3.93-.06,1.16-.38,1.77-1.88,3.47-1.38,2,.6,1.44,1.39.47,2.41a4,4,0,0,0,3.34-.18c1-.66,1.58-1.56,3-.82,2,1.08-.52,1.26-.25,1.81.13.27.78.31,1.2.4l14.12,2.74c.92.18,1.9.77,1.53-1.16-.14-.73,1.64-.65,2-.29,7,6.84,16.75,6,25.19,8.39,23,6.54,45.91,13.17,68.58,20.72a12.5,12.5,0,0,0,2.36.77c10.91,1.25,15.75,7.88,18.25,18.18,3.52,14.48,9.24,28.39,12,43.13a27.06,27.06,0,0,1-.23,12.78c-5.36,18.48-11.16,36.8-18.07,54.76-2.45,2.58-5.57,3.92-8.89,4.92-5.56,2.54-11.2,4.92-16.82,7.36-9.19,4-18.66,7.35-28.13,10.66a26.9,26.9,0,0,0-5.39,2.43c-11.92,4.42-24.41,6.56-36.84,8.62-27.43,4.55-55,7.82-82.89,7.36a323.24,323.24,0,0,1-74.49-10.34c-24.57-6.25-48.57-14.14-71.34-25.42C877.65,520.92,875.82,521.41,874,521.51Z" transform="translate(-780.26 -325.46)"/><path class="cls-6" d="M874,521.51c1.22-1,2.22-2.9,4.15-1,31.31,22.12,66.7,32.49,104.34,36.68a376.17,376.17,0,0,0,41.29,2.66A397.28,397.28,0,0,0,1137,543.71c2.76-.81,6.09-.48,8.06-3.31l28.07-10.9c1.69-.66,3.36-1.37,5-2,6.11-1.23,12.3-2.24,16.84-7.17l9.09-3.87c-3.36,11.86-8.68,23-13.2,34.36-2.45,6.17-7.35,9.49-12.61,12.81-27.81,17.56-57.48,30.72-89.75,37.36s-64.54,6.58-96.68-2c-34.07-9.12-65.48-23.89-95.28-42.5a33.2,33.2,0,0,1-12.23-13.36C880.67,536,876.49,529.17,874,521.51Z" transform="translate(-780.26 -325.46)"/><path class="cls-7" d="M1278,349.54c3.86,6.44,4.9,13.68,5.91,20.92,2.52,8,2,16.21,1.07,24.16a250.94,250.94,0,0,1-41.68,113.65c-9.25,13.74-20.2,26-33.56,35.91-1.69,1.25-3.23,3-5.74,2.23,2.36-11.11,7.27-21.33,11.42-31.79q8.91-22.46,18.25-44.72c5.86-13.94,2.39-27.37-1.94-40.72-5-15.43-10.94-30.59-14.14-46.57-.6-3-1.72-6-.61-9.19.27-4.76,4-7.43,6.56-10.8a92.91,92.91,0,0,1,16.07-16.25c6.77-5.52,14.32-8.22,23.07-7.35C1269.34,340.32,1274.14,344.28,1278,349.54Z" transform="translate(-780.26 -325.46)"/><path class="cls-7" d="M854.23,514.33c-2.71.57-4.14-1.5-5.59-3-13.67-14.48-24.25-31-32.71-49-4.83-10.31-9.42-20.66-13.26-31.4-6.15-17.18-11.82-34.48-14.45-52.57-1.66-11.48-2.54-23,1.56-34.39,3.79-10.58,14.43-14,23.31-12,2.41.54,4.71,1.66,7.27,1.44,6.77-.11,12.45,3.06,17.87,6.45a58.39,58.39,0,0,1,20,21.19c1.1,1.95,2.78,3.84,2,6.43-.75,11.15-3.93,21.83-6.45,32.62-4,17.28-7.73,34.62-9.4,52.29-1.86,19.72,2.57,38.61,8.7,57.18C853.53,511.09,853.83,512.73,854.23,514.33Z" transform="translate(-780.26 -325.46)"/><path class="cls-8" d="M1041.87,339.29c12.27.3,24.92,3.08,37.51,5.86,20.71,4.56,41.29,9.65,62,14.22,3.5.78,4,2.57,3.53,5.23-.62,3.24-2.88,1.24-4.33.87-19.74-5-39.39-10.48-59.39-14.37-13.61-2.65-27.18-6.23-41.22-5.59-12.26.56-24.3,2.89-36.32,5.24-25.2,4.91-50,11.36-74.84,17.88-1.22.32-2.75,1.42-3.39-.42-.59-1.68-.8-3.72.8-5.11a7.78,7.78,0,0,1,3.11-1.51c25.46-6.64,51-12.71,77-17.27C1017.86,342.29,1029.3,339.5,1041.87,339.29Z" transform="translate(-780.26 -325.46)"/><path class="cls-9" d="M1204,546.41c16.26-10.45,28.87-24.55,39.29-40.56,24.79-38.11,39.71-79.56,40.91-125.41.08-3.32-.18-6.65-.29-10a1.37,1.37,0,0,1,.16-.47,4.61,4.61,0,0,1,.58-.59,34.25,34.25,0,0,1,2.39,12c1.33,23.55-4.7,45.81-12.15,67.75-11.44,33.71-28.42,64.07-54.82,88.55a110,110,0,0,1-17.23,13.47C1201.56,549.16,1203.69,548,1204,546.41Z" transform="translate(-780.26 -325.46)"/><path class="cls-10" d="M1262.91,339.57c-10.83-.91-19,4.51-26.62,11.23s-13.56,14.46-19.27,22.62c-1.81-1.73-.79-3.87-.85-5.84,5.43-6.24,10.79-12.52,16.68-18.37,8.7-8.65,18.83-12.56,31.06-10.63C1264.16,339.5,1264,340,1262.91,339.57Z" transform="translate(-780.26 -325.46)"/><path class="cls-11" d="M860.17,367.43c-7.83-16.09-19.37-28.1-36.9-33.5a28.23,28.23,0,0,0-2.91-.57c4.3-1.68,8,.56,11.62,2.1,15.3,6.46,25.15,18.38,32.26,32.93C862.25,370.75,861.4,368.31,860.17,367.43Z" transform="translate(-780.26 -325.46)"/><path class="cls-12" d="M1262.91,339.57l1-1c6.25,1.67,11.32,4.86,14.13,11C1273.61,345.29,1269,341.25,1262.91,339.57Z" transform="translate(-780.26 -325.46)"/><path class="cls-6" d="M1177.05,495.39c-5.38,3.84-11.92,3.62-18,4.85-17.15,3.48-34.4,6.55-51.66,9.48-16.27,2.76-32.63,5-48.9,7.76a147.24,147.24,0,0,1-30.22,1.87,295.29,295.29,0,0,1-36.92-4.11c-19.23-3.16-38.45-6.34-57.61-9.89-16.4-3-32.71-6.62-49.07-9.94-1-.19-2.2-.06-2.25-1.39-.07-1.72,1.4-1.68,2.51-1.58,2.08.17,4.35-.82,6.19.94,6.86,1.89,14,2.24,21,2.91,19,1.83,38,4.12,57,6,16.38,1.65,32.79,3,49.25,3.62,8.47.34,16.92,1.22,25.42.93q37.15-1.31,74.11-5.47c17.68-2,35.27-4.72,52.95-6.75C1172.94,494.42,1175.13,493.82,1177.05,495.39Z" transform="translate(-780.26 -325.46)"/><path class="cls-13" d="M1177.05,495.39c-9,1.17-18,2.39-27,3.51-12.3,1.54-24.59,3.13-36.9,4.47-13.15,1.44-26.3,3.35-39.49,3.72-16.71.46-33.42,2.79-50.21.51-6.88-.93-13.9-.59-20.85-1-23.46-1.43-46.78-4-70.07-7.06-13.92-1.83-27.87-3.43-41.81-5.14-.49-.06-1-.1-1.48-.14.2-1.28,1.27-.6,1.93-.86,14,1.28,28,2.58,42,3.81,5,.43,9.93.69,14.89,1,37.36,2.67,74.79,2.71,112.2,2,19.07-.36,38.12-1.76,57.16-2.94,18.53-1.14,37-2.55,55.55-4,7.24-.56,14.46-1.45,21.82-1.28Z" transform="translate(-780.26 -325.46)"/><path class="cls-13" d="M1145.06,540.4c.17,1.45.22,1.6-1.34,2.09-7.26,2.31-14.46,4.88-21.84,6.7-20.41,5-41,8.89-62,10.31-13.24.9-26.46,2.26-39.72,1.79-29-1-57.81-3.7-85.74-12.08-19.15-5.76-37.45-13.51-53.42-25.93a31.83,31.83,0,0,1-2.78-2.79c13.07,5.24,25.84,11.19,39.23,15.65a413.75,413.75,0,0,0,64.46,16.22,308.85,308.85,0,0,0,40.48,3.93c19.93.61,39.7-1.51,59.49-3.71a427.4,427.4,0,0,0,57.09-10.19C1141,541.87,1143,541.07,1145.06,540.4Z" transform="translate(-780.26 -325.46)"/><path class="cls-13" d="M1213.17,457.63c-56.49-3.6-112.84-8.6-167.18-26.27C1102,438.21,1158.05,444.56,1213.17,457.63Z" transform="translate(-780.26 -325.46)"/><path class="cls-13" d="M866.05,458.19a1214.61,1214.61,0,0,1,162-26.12c-12.9,2.72-25.81,5.4-38.7,8.17-19.4,4.18-38.75,8.56-58.17,12.6-10,2.09-20.29,2.71-30.47,3.83-10.59,1.16-21.26-.35-31.76,1.64A13,13,0,0,1,866.05,458.19Z" transform="translate(-780.26 -325.46)"/><path class="cls-14" d="M1195,520.28c1,.85.24,1.47-.35,2a21.26,21.26,0,0,1-16.49,5.18Z" transform="translate(-780.26 -325.46)"/></svg>