<svg id="Layer_1" data-name="Layer 1" xmlns="http://www.w3.org/2000/svg" viewBox="0 0 597.4 373.49"><defs><style>.cls-1{fill:#fefefe;}.cls-2{fill:#fdfdfd;}.cls-3{fill:#fcfcfc;}</style></defs><path d="M1061.15,583.24c-5.85,8.21-8.58,8.19-13.13-.3-3.53-6.59-7.09-13.27-9.62-20.27-5.72-15.83-2.71-30.21,8.61-42.82,2.39-2.66.37-5.74-.11-8.43-3.32-18.74-2.76-37.15,3.41-55.3,13.37-39.38,53.9-69.35,95.38-70.43a18.32,18.32,0,0,0,2.19-.31c-6.18-30.18,1.68-49.76,24.16-60.35,22.07-10.4,48.33-4.29,63.06,14.67,13.62,17.53,12.54,39-3.08,58.54,42.59,18.32,51,55.6,53.33,96.22a49.87,49.87,0,0,1,.09,7c-.86,9.53.12,18,5.77,26.75,8,12.25,7.6,25.95.71,39.2-2.61,5-4.65,10.35-7.33,15.33-4.41,8.18-6.06,8.36-13,2.23-8.66,32.69-20.91,63.37-49.06,84.82C1208,680.89,1192.2,689.34,1174,692.9c-7.76,1.51-15.15-.11-22.14-2.57-24.41-8.58-45.88-22.11-62.18-42.33-13.44-16.68-20.75-36.69-26.52-57.18C1062.46,588.39,1061.86,585.94,1061.15,583.24Z" transform="translate(-699.73 -319.99)"/><path d="M718.16,389.21,734,402.69c-8.06-18.08-2.54-34.85,4.67-51.78,5,3.73,10,7,14.42,10.91,12.77,11.39,27.1,12.39,42.88,7.92,15.39-4.37,30.53-9.66,46.31-12.62,9.84-1.85,18.94-1.1,27.58,4.53a229.24,229.24,0,0,1,25.68,18.89c3.67,3.2,7.23,4.45,11.93,3.94,5.16-.56,10.38-.67,15.58-.9,9.51-.42,16.06,4.09,21.24,11.85,14.12,21.14,21.35,44.13,19.73,69.66-1.16,18.14-2.36,36.27-7,54a9.8,9.8,0,0,0,.66,7.54c8.08,14.72,6.92,29.27-1,43.67-2.24,4.06-4,8.38-6.28,12.43-4.17,7.45-5.85,7.59-12.21.91-4.18,16.54-10.59,31.84-17.29,47.16-7.52,17.2-19.77,29.57-34.21,40.42a136.79,136.79,0,0,1-33.1,18.47c-11.14,4.29-22.26,5-33.42,1.11-27.84-9.72-52.76-24.71-68.44-49.94-11-17.64-20-37.05-23.64-58.36-7.5,8.5-8.89,8.35-14.11-1.61-2.63-5-4.87-10.26-7.45-15.31-6.4-12.5-6-25,.37-37.22,2.21-4.22,2.74-7.63.41-12.05-10.43-19.75-7.63-40.79-5.43-61.73.64-6,6.09-5.05,9.53-6,7.13-1.88,9.57-4.72,4.59-11.15a11.55,11.55,0,0,1-1.13-2C704.94,415,705.35,409.13,718.16,389.21Z" transform="translate(-699.73 -319.99)"/><path class="cls-1" d="M1084.22,573.11,1072,549c71.07,9.72,117.64-40.92,126.25-97.21,2.07,9.91,3.74,19.14,5.93,28.25,7.06,29.26,28.38,46.14,53,59.69,4.84,2.65,5.84,4.62,3.91,9.56-3,7.67-5.27,15.62-7.48,22.33-31-10-61.2-25.73-94.74-22.1C1133.26,552.24,1108.69,562,1084.22,573.11Z" transform="translate(-699.73 -319.99)"/><path class="cls-2" d="M1078.68,623.25c-8.86-17.9-13.38-34.87-16.33-53.07-4.51,4.68-2.48,12.06-7.7,15.69-17.16-18.92-19.89-39.56-8-61.27,2.94.78,3.54,3.52,4.25,5.75,6.22,19.5,18.54,35.61,29.09,52.69,2.09,3.39,3.1,6.31,2.19,10.67C1080.28,602.71,1078.44,611.82,1078.68,623.25Z" transform="translate(-699.73 -319.99)"/><path class="cls-3" d="M1284.56,524.39c14.23,20.92,10.53,35.07-6.5,61.61-4.38-2.92-4-8.46-7.09-13.58-2.29,9.34-3.94,17.58-6.36,25.59s-5,16.17-9.77,24c-1.13-26.83-.76-26.69,13.67-62.94C1273.23,547.16,1283.59,538.14,1284.56,524.39Z" transform="translate(-699.73 -319.99)"/><path class="cls-1" d="M751.87,577.64c-6.88-11.19-13.7-22.42-20.67-33.55-1.27-2.05-.83-3.86-.5-5.94,1.44-9,2.92-17.92,3.95-26.93.38-3.34,1.78-5,4.71-6.27,35.31-15.07,71.84-20,110.21-16.47,23.5,2.17,47.36.94,71,.45,6.48-.13,8.32,1.95,9,7.69q2.64,21.23,6,42.36c.46,3-.75,4.95-1.91,7.23-4.54,9-9.06,17.93-13.78,27.27-5.56-6-13.52-6.57-20.56-8.93-13.19-4.43-26.87-7.4-40.12-11.69-17.49-5.67-34.71-4.86-51.92.67-16,5.13-31.82,10.49-47.74,15.73C755.69,570.57,752.42,572.39,751.87,577.64Z" transform="translate(-699.73 -319.99)"/><path class="cls-2" d="M711.55,526.46c1.45,3.47,2.58,5.73,3.36,8.1,6,18.26,18.48,32.57,29.7,47.52,4.2,5.59,5.1,10.61,3.89,17-1.41,7.37-2.31,14.84-3.52,22.83-8.92-16.55-12.92-34.43-16.84-54.26-1.06,3.3-1.4,4.85-2,6.26-1.65,3.58-.66,10-5.21,10.13-3.81.1-4.65-6.06-6.45-9.62-3.36-6.67-6.95-13.23-8.65-20.65C703.55,544,706.66,535.69,711.55,526.46Z" transform="translate(-699.73 -319.99)"/><path class="cls-3" d="M921.05,619.5a29.28,29.28,0,0,0,0-5.3c-4-21.66,7-37.75,18.84-54.12,6.51-9,11.22-19.49,14.66-31.28C960.79,539,961.64,549,958,559.07c-2.72,7.45-6.8,14.41-10.3,21.57-.77,1.58-1.32,3.86-3.37,3.75-2.48-.12-2.7-2.67-3.42-4.57-1-2.61-2.07-5.18-3.72-9.23C933.82,588.5,929.62,604.63,921.05,619.5Z" transform="translate(-699.73 -319.99)"/></svg>