<svg id="Layer_1" data-name="Layer 1" xmlns="http://www.w3.org/2000/svg" viewBox="0 0 474.37 703.73"><defs><style>.cls-1{fill:#202020;}.cls-2{fill:#fefefe;}.cls-3{fill:#fdfdfd;}</style></defs><path class="cls-1" d="M961.14,610.58q0-112.22-.13-224.43c0-4.76,1.43-5.62,5.82-5.61q86.72.21,173.43,0c4.32,0,5.06,1.34,5.06,5.3q-.15,225.18,0,450.36c0,4-1.12,5.07-5,4.94-8.15-.27-16.32-.21-24.48,0-3.26.08-4.15-.9-4.19-4.21-.37-27.49-1.42-55-4.94-82.26-2.48-19.35-5.85-38.51-13.79-56.55a70.84,70.84,0,0,0-8.55-14.61c-15.72-20.64-44.36-21.21-60.73-1.08-10.78,13.25-15.82,29.11-19.71,45.38-6.37,26.68-8.64,53.89-10.05,81.18-.5,9.49-.77,19-.9,28.47,0,2.82-.82,3.74-3.68,3.67-7.66-.18-15.34-.27-23,0-4,.16-5.32-.86-5.29-5.12.21-27.32.11-54.65.11-82Q961.15,682.31,961.14,610.58Z" transform="translate(-815.71 -137.49)"/><path class="cls-1" d="M1153.57,506.89l62.56,40.39c23.49,15.18,46.94,30.41,70.5,45.47,2.6,1.66,3.42,3.4,3.42,6.4q-.12,118.46,0,236.91c0,3.69-.59,5.1-4.78,5.09q-63.72-.27-127.44-.06c-3.14,0-4.7-.3-4.7-4.17q.16-163.92.1-327.86A19.92,19.92,0,0,1,1153.57,506.89Z" transform="translate(-815.71 -137.49)"/><path class="cls-1" d="M952.9,507v5.77q0,161.4.1,322.81c0,4.25-.77,5.56-5.36,5.54q-63-.3-125.91,0c-4.64,0-6-1-6-5.92q.27-117.43,0-234.86c0-3.89,1.08-6.18,4.46-8.34q64.8-41.32,129.4-83C950.42,508.55,951.25,508.05,952.9,507Z" transform="translate(-815.71 -137.49)"/><path class="cls-1" d="M1054.14,371.59c-34.64,0-69.28-.07-103.92.1-3.83,0-4.69-1-4.58-4.68.26-8.71.06-8.72,8.9-8.72,6.17,0,12.34-.2,18.49.09,3.49.17,5.26-1,6.81-4.19,2-4.18,40.22-89.9,54.26-110.07a74.83,74.83,0,0,0,10.78-21.94c.3-1,1.07-3.68,1.76-7.25,1.43-7.45.73-9.69.41-27.91-.12-6.36-.3-8.73-2-10.38-1.44-1.37-4.21-1.39-10-1.39s-8.12-3.51-6.2-8.95c.66-1.85,2.07-1.34,3.28-1.36,3.83-.07,7.67-.19,11.49,0,2.7.15,3.4-.88,3.34-3.42-.15-6.49.09-13-.13-19.48-.12-3.29.53-4.72,4.29-4.57,6.74.27,6.76,0,6.76,6.94,0,5.5.22,11-.07,16.49-.18,3.39,1,4.32,4.22,4,3.48-.3,7,.15,10.49-.14,4.37-.36,3.39,2.7,3.23,4.92s1.78,5.77-3.13,5.52c-3.82-.2-7.67.13-11.48-.07-2.7-.13-3.32.88-3.3,3.43.12,12.16.09,24.32,0,36.48a11.61,11.61,0,0,0,1.43,5.22q32.31,67.21,64.56,134.46c1.28,2.66,2.75,3.62,5.67,3.57,9.83-.17,19.66.08,29.48-.15,3.33-.07,4.1,1,4.06,4.18-.12,9.21,0,9.21-9,9.21Z" transform="translate(-815.71 -137.49)"/><path class="cls-1" d="M1060.65,811.88c0,8.49-.11,17,.07,25.48,0,2.78-.69,3.67-3.56,3.75-11.63.35-11.62.46-11.62-11.12,0-14.32-.15-28.65.09-43,.06-3.86-1.1-4.85-4.79-4.65-5.64.31-11.32,0-17,.14-2.68.09-3.29-.88-3.36-3.43-.28-10.65-.37-10.65,10-10.65a96.31,96.31,0,0,1,10.48.09c4,.43,4.66-1.23,4.58-4.78-.22-9.82,0-19.65-.12-29.48,0-2.67.48-3.71,3.49-3.75,11.68-.17,11.68-.3,11.68,11.55,0,7.49.13,15-.06,22.48-.07,3,.6,4.12,3.82,4,5.81-.27,11.65,0,17.48-.14,2.55-.07,3.35.62,3.43,3.3.31,10.8.42,10.79-10.47,10.78-3.33,0-6.68.26-10-.06-3.69-.37-4.39,1.17-4.3,4.51C1060.81,795.22,1060.66,803.55,1060.65,811.88Z" transform="translate(-815.71 -137.49)"/><path class="cls-1" d="M815.85,585.79c0-5.08.06-9.51,0-13.95,0-1.77.85-2.67,2.21-3.53l133.58-85.7c.21-.14.6,0,1.33.05,0,4.4-.09,8.84.05,13.27,0,1.85-1,2.65-2.28,3.48L818,584.58C817.47,584.91,816.93,585.18,815.85,585.79Z" transform="translate(-815.71 -137.49)"/><path class="cls-1" d="M1290,586c-15.12-9.74-29.48-19-43.83-28.26-28.66-18.5-57.21-37.17-86.07-55.36-5.34-3.37-8-6.85-6.92-13.08.37-2.24.06-4.58.06-7.71,3.4,2.12,6.17,3.79,8.89,5.55q62.3,40.19,124.6,80.36c2.35,1.51,3.55,3.05,3.33,6C1289.78,577.3,1290,581.14,1290,586Z" transform="translate(-815.71 -137.49)"/><path class="cls-2" d="M1097.18,558.25c0,14.49-.1,29,.08,43.45,0,3.48-.52,4.88-4.53,4.85q-40.45-.3-80.92,0c-3.46,0-4.54-.91-4.49-4.42.48-35.79.83-71.58,5.43-107.16,1.19-9.16,1-9.18,10.15-9.19,7.49,0,15,.09,22.47-.05,2.56-.05,3.5.67,3.45,3.36-.16,8.15-.06,16.31-.06,24.47,0,1.48.22,2.85-1.82,3.48-6.11,1.86-8.15,6.89-9.19,12.52-1.28,6.87-1.82,13.85-3.66,20.63-1.22,4.53-2.5,9.06-5.39,12.76-2.07,2.65-.77,3.76,1.27,5a32.73,32.73,0,0,0,12.65,4.37c2.14.32,3.62.7,4.26,3.17s2.89,3.63,5.37,3.69,4.83-1,5.47-3.52c.7-2.74,2.44-3,4.67-3.38,4.59-.83,9.08-2.08,13-4.83,1.54-1.08,2.27-2,.91-4-5.9-8.52-7-18.51-8.49-28.39-.65-4.44-1-9-3.52-12.88-.87-1.37-2-3.23-3.32-3.55-5.51-1.34-5.25-5.24-5.12-9.53.2-6.65.15-13.32,0-20-.06-2.6.78-3.46,3.41-3.42,9.66.13,19.32.19,29,0,3.06-.06,3.42,1.41,3.76,3.84C1095.1,512.34,1095.91,535.29,1097.18,558.25Z" transform="translate(-815.71 -137.49)"/><path class="cls-3" d="M1052.57,478.58c-11.16,0-22.32-.05-33.47,0-2.43,0-3.81-.23-3.05-3.21,2.43-9.52,4.84-19,9.66-27.7,6.08-11,15-17.07,27.85-16.83,13,.24,21.88,6.67,27.61,18.08,4.14,8.26,6.36,17.11,8.45,26,.68,2.9-.13,3.69-3.08,3.66C1075.22,478.5,1063.89,478.58,1052.57,478.58Z" transform="translate(-815.71 -137.49)"/><path class="cls-2" d="M1199.22,728.46c.87-22.63,1.31-45.26,4.63-67.7.92-6.25,2.22-12.44,5-18.21,2.56-5.4,6.52-8.8,12.76-8.71,6.06.09,9.77,3.57,12.16,8.81,4.51,9.86,5.76,20.47,6.85,31,3.29,32,3.22,64.13,3.49,96.24,0,3.19-1,3.82-4,3.78-12.14-.18-24.29-.28-36.43,0-4,.1-4.58-1.34-4.54-4.83C1199.32,755.42,1199.22,741.94,1199.22,728.46Z" transform="translate(-815.71 -137.49)"/><path class="cls-2" d="M906.75,726.48c0,14.31-.07,28.63.06,42.94,0,3.05-.5,4.35-4,4.29-12.31-.23-24.62-.12-36.94,0-2.47,0-3.93-.15-3.9-3.36.36-36.1-.06-72.23,4.94-108.11,1-6.92,2.46-13.74,5.58-20.09,2.46-5,6.2-8.27,12-8.3,6,0,10,3,12.5,8.33,4.87,10.29,5.76,21.44,6.9,32.51C905.66,691.88,906,709.19,906.75,726.48Z" transform="translate(-815.71 -137.49)"/></svg>